#!OML:ASF H:\Not Pregnant\Project 1\Capture day 1\Session 1\non-pregnant.ASF
:FULLY-SPECIFIED
:DEGREES
3543
root 5.25621 6.2975 17.4715 68.2119 -3.83451 0.621941
lowerback 23.6305 -3.0881 4.22298
upperback 6.58286 -3.48293 -6.41645
thorax -6.53672 -1.69815 -8.54347
lowerneck 14.7028 -12.5396 -36.63
upperneck -23.6519 -20.4754 51.2344
head 3.8461 -14.3527 30.574
rclavicle 7.95139e-016 3.09856e-014
rhumerus 47.9958 4.9533 -82.9826
rradius 101.057
rwrist 19.5911
rhand -22.2179 -13.4453
rfingers 7.12502
rthumb 4.19831 316.616
lclavicle 7.95139e-016 3.09856e-014
lhumerus 45.1049 -24.2811 80.1598
lradius 88.1237
lwrist -47.2771
lhand -37.0237 6.96077
lfingers 7.12502
lthumb -10.0975 36.6985
rfemur 3.18339 6.80334 17.2982
rtibia 11.1231
rfoot 59.3966 3.09215
rtoes 8.58598
lfemur -185.95 -9.21479 -42.1945
ltibia 130.628
lfoot 1.47755 -15.3998
ltoes 34.6038
3544
root 5.23705 6.28902 17.4774 68.2701 -3.76194 0.823887
lowerback 23.5173 -3.20701 4.39884
upperback 6.77056 -3.5909 -6.45145
thorax -6.30179 -1.73661 -8.65613
lowerneck 14.8072 -12.4591 -36.7131
upperneck -23.2679 -20.4739 51.1599
head 3.91928 -14.3462 30.5867
rclavicle -8.74653e-015 -1.80397e-014
rhumerus 48.3602 4.87803 -82.8102
rradius 101.377
rwrist 19.6223
rhand -21.6684 -13.3817
rfingers 7.12502
rthumb 4.72897 316.691
lclavicle -8.74653e-015 -1.80397e-014
lhumerus 45.4032 -24.0604 79.9241
lradius 88.3846
lwrist -47.1694
lhand -36.953 6.81193
lfingers 7.12502
lthumb -10.0293 36.553
rfemur 4.11109 6.59467 17.312
rtibia 8.75051
rfoot 60.7711 2.6004
rtoes 8.98002
lfemur -185.998 -9.28941 -42.121
ltibia 130.666
lfoot 1.37582 -15.347
ltoes 34.5095
3545
root 5.21813 6.28037 17.4823 68.3004 -3.70526 1.01756
lowerback 23.424 -3.32385 4.54708
upperback 6.94101 -3.7037 -6.49187
thorax -6.09679 -1.77821 -8.7576
lowerneck 14.9955 -12.3888 -36.7115
upperneck -22.8753 -20.4704 51.0115
head 3.92813 -14.3281 30.4584
rclavicle -1.11319e-014 -7.45443e-015
rhumerus 48.6856 4.82705 -82.6167
rradius 101.613
rwrist 19.6129
rhand -21.2484 -13.3132
rfingers 7.12502
rthumb 5.13446 316.769
lclavicle -1.11319e-014 -7.45443e-015
lhumerus 45.625 -23.8339 79.713
lradius 88.6646
lwrist -47.0689
lhand -36.8705 6.65191
lfingers 7.12502
lthumb -9.94967 36.3968
rfemur 5.49409 6.40088 17.3025
rtibia 5.55342
rfoot 62.5651 1.95623
rtoes 9.67573
lfemur -186.031 -9.34074 -42.0542
ltibia 130.709
lfoot 1.2663 -15.2856
ltoes 34.4393
3546
root 5.19982 6.27198 17.4859 68.3181 -3.64963 1.2021
lowerback 23.3369 -3.43899 4.67982
upperback 7.08626 -3.81861 -6.52779
thorax -5.92286 -1.82229 -8.84449
lowerneck 15.2525 -12.3157 -36.6705
upperneck -22.4366 -20.4672 50.7995
head 3.90179 -14.3002 30.2339
rclavicle 3.33958e-014 3.65267e-014
rhumerus 48.9831 4.81361 -82.4032
rradius 101.753
rwrist 19.5838
rhand -20.9842 -13.2524
rfingers 7.12502
rthumb 5.38956 316.836
lclavicle 3.33958e-014 3.65267e-014
lhumerus 45.7647 -23.6101 79.5432
lradius 88.9625
lwrist -46.9763
lhand -36.7629 6.48493
lfingers 7.12502
lthumb -9.84585 36.2347
rfemur 8.11556 6.21921 17.2631
rtibia -2.8625e-014
rfoot 65.4705 0.738455
rtoes 10.8878
lfemur -186.051 -9.38537 -41.9873
ltibia 130.746
lfoot 1.15236 -15.2173
ltoes 34.4146
3547
root 5.18241 6.26416 17.4881 68.3309 -3.59603 1.38087
lowerback 23.2516 -3.55755 4.79735
upperback 7.2099 -3.94195 -6.56023
thorax -5.7751 -1.87173 -8.91613
lowerneck 15.5547 -12.2535 -36.5801
upperneck -21.958 -20.471 50.5153
head 3.84279 -14.2624 29.8836
rclavicle 7.15625e-015 1.94809e-014
rhumerus 49.2703 4.86664 -82.1854
rradius 101.8
rwrist 19.6008
rhand -20.9093 -13.2198
rfingers 7.12502
rthumb 5.46195 316.871
lclavicle 7.15625e-015 1.94809e-014
lhumerus 45.8489 -23.3793 79.4013
lradius 89.2664
lwrist -46.8687
lhand -36.621 6.28104
lfingers 7.12502
lthumb -9.70896 36.0373
rfemur 7.83086 6.04345 17.2385
rtibia -4.77083e-015
rfoot 66.2905 0.850451
rtoes 12.975
lfemur -186.058 -9.43307 -41.9193
ltibia 130.774
lfoot 1.03316 -15.1364
ltoes 34.4382
3548
root 5.16581 6.25665 17.4891 68.3329 -3.54324 1.54357
lowerback 23.1714 -3.67868 4.90676
upperback 7.32601 -4.07037 -6.58796
thorax -5.63902 -1.92405 -8.97629
lowerneck 15.8468 -12.1836 -36.5233
upperneck -21.3985 -20.4851 50.2058
head 3.81267 -14.2229 29.5196
rclavicle -1.03368e-014 -2.55935e-014
rhumerus 49.5703 4.99526 -81.9792
rradius 101.767
rwrist 19.6877
rhand -20.9781 -13.1915
rfingers 7.12502
rthumb 5.39545 316.897
lclavicle -1.03368e-014 -2.55935e-014
lhumerus 45.9197 -23.1277 79.2712
lradius 89.5726
lwrist -46.7496
lhand -36.4512 6.05589
lfingers 7.12502
lthumb -9.54514 35.8197
rfemur 7.57861 5.88431 17.2107
rtibia 1.43125e-014
rfoot 67.209 1.04932
rtoes 15.2089
lfemur -186.059 -9.47547 -41.8513
ltibia 130.796
lfoot 0.907081 -15.0455
ltoes 34.4556
3549
root 5.15039 6.24995 17.4889 68.3472 -3.48623 1.69279
lowerback 23.0682 -3.8032 5.02077
upperback 7.44066 -4.20235 -6.60711
thorax -5.4939 -1.97774 -9.02906
lowerneck 16.1175 -12.1025 -36.5153
upperneck -20.7934 -20.5035 49.8916
head 3.81169 -14.1827 29.1814
rclavicle -3.02153e-014 -5.11871e-014
rhumerus 49.903 5.1987 -81.7753
rradius 101.676
rwrist 19.8363
rhand -21.1623 -13.184
rfingers 7.12502
rthumb 5.21761 316.9
lclavicle -3.02153e-014 -5.11871e-014
lhumerus 46.0105 -22.8582 79.1445
lradius 89.8572
lwrist -46.6345
lhand -36.2751 5.82993
lfingers 7.12502
lthumb -9.37524 35.6014
rfemur 7.35202 5.73633 17.181
rtibia -5.24792e-014
rfoot 68.1421 1.25407
rtoes 17.4161
lfemur -186.057 -9.52942 -41.7809
ltibia 130.805
lfoot 0.76879 -14.9482
ltoes 34.4664
3550
root 5.13534 6.24301 17.4885 68.3364 -3.43698 1.80175
lowerback 22.9733 -3.92403 5.13446
upperback 7.57397 -4.32903 -6.62268
thorax -5.33151 -2.0274 -9.07966
lowerneck 16.3367 -12.0115 -36.5615
upperneck -20.1531 -20.5212 49.5915
head 3.84833 -14.1409 28.8895
rclavicle 0 5.81445e-015
rhumerus 50.2653 5.48358 -81.5947
rradius 101.574
rwrist 20.0156
rhand -21.3852 -13.1941
rfingers 7.12502
rthumb 5.00243 316.885
lclavicle 0 5.81445e-015
lhumerus 46.1729 -22.5349 78.9878
lradius 90.1137
lwrist -46.506
lhand -36.0888 5.62985
lfingers 7.12502
lthumb -9.1955 35.4093
rfemur 7.20959 5.62981 17.1614
rtibia 1.74931e-014
rfoot 68.9997 1.58015
rtoes 19.035
lfemur -186.063 -9.54825 -41.7139
ltibia 130.829
lfoot 0.588617 -14.844
ltoes 34.3634
3551
root 5.12046 6.23559 17.4882 68.2978 -3.3901 1.85949
lowerback 22.898 -4.02742 5.2478
upperback 7.71942 -4.43221 -6.62502
thorax -5.16037 -2.06485 -9.12219
lowerneck 16.5512 -11.9173 -36.6227
upperneck -19.543 -20.533 49.2889
head 3.87778 -14.0956 28.6119
rclavicle 2.62396e-014 5.82439e-014
rhumerus 50.652 5.80862 -81.413
rradius 101.465
rwrist 20.1901
rhand -21.6168 -13.2466
rfingers 7.12502
rthumb 4.77881 316.827
lclavicle 2.62396e-014 5.82439e-014
lhumerus 46.3636 -22.206 78.8471
lradius 90.3499
lwrist -46.4153
lhand -35.9182 5.49114
lfingers 7.12502
lthumb -9.03089 35.2778
rfemur 7.16081 5.57221 17.1714
rtibia -1.59028e-014
rfoot 69.6605 1.87741
rtoes 19.9716
lfemur -186.089 -9.52014 -41.6504
ltibia 130.872
lfoot 0.38976 -14.7392
ltoes 34.1738
3552
root 5.10568 6.22775 17.4879 68.2392 -3.34865 1.86872
lowerback 22.8359 -4.10572 5.35851
upperback 7.86641 -4.5034 -6.61431
thorax -4.98682 -2.08671 -9.15791
lowerneck 16.7633 -11.8022 -36.7303
upperneck -18.9238 -20.5346 49.0065
head 3.92264 -14.0498 28.4014
rclavicle 4.21423e-014 4.22417e-015
rhumerus 51.0342 6.14635 -81.2276
rradius 101.356
rwrist 20.3635
rhand -21.8617 -13.3481
rfingers 7.12502
rthumb 4.54236 316.721
lclavicle 4.21423e-014 4.22417e-015
lhumerus 46.5612 -21.8951 78.7344
lradius 90.5606
lwrist -46.3719
lhand -35.7661 5.45245
lfingers 7.12502
lthumb -8.88409 35.2454
rfemur 7.19003 5.56126 17.2122
rtibia 9.54166e-015
rfoot 70.0758 2.01554
rtoes 20.3848
lfemur -186.128 -9.44323 -41.59
ltibia 130.934
lfoot 0.178062 -14.6412
ltoes 33.9573
3553
root 5.09065 6.21955 17.4877 68.1501 -3.32191 1.83375
lowerback 22.804 -4.1507 5.44831
upperback 8.01222 -4.5354 -6.58955
thorax -4.81963 -2.08993 -9.17637
lowerneck 17.0638 -11.7023 -36.7597
upperneck -18.4155 -20.5298 48.6662
head 3.88081 -13.9972 28.1047
rclavicle 7.15625e-015 -2.01766e-014
rhumerus 51.3926 6.47148 -81.0384
rradius 101.254
rwrist 20.5484
rhand -22.122 -13.4959
rfingers 7.12502
rthumb 4.29096 316.568
lclavicle 7.15625e-015 -2.01766e-014
lhumerus 46.7416 -21.6201 78.6696
lradius 90.7593
lwrist -46.3514
lhand -35.6395 5.488
lfingers 7.12502
lthumb -8.76194 35.2861
rfemur 7.29407 5.59647 17.2778
rtibia -2.06736e-014
rfoot 70.2367 2.034
rtoes 20.3908
lfemur -186.174 -9.30818 -41.5421
ltibia 131.02
lfoot -0.0177521 -14.5591
ltoes 33.7697
3554
root 5.07512 6.21138 17.4878 68.0257 -3.31899 1.76345
lowerback 22.8041 -4.16344 5.51183
upperback 8.16592 -4.53089 -6.55926
thorax -4.65033 -2.07517 -9.18322
lowerneck 17.4064 -11.6087 -36.7647
upperneck -17.9433 -20.5293 48.3033
head 3.81257 -13.9473 27.783
rclavicle 2.38542e-015 -1.54058e-014
rhumerus 51.7388 6.7599 -80.8568
rradius 101.162
rwrist 20.7111
rhand -22.34 -13.6427
rfingers 7.12502
rthumb 4.08043 316.417
lclavicle 2.38542e-015 -1.54058e-014
lhumerus 47.0075 -21.3811 78.5272
lradius 90.7939
lwrist -46.2546
lhand -35.6211 5.63181
lfingers 7.12502
lthumb -8.74418 35.4307
rfemur 7.45769 5.67301 17.3569
rtibia 1.27222e-014
rfoot 70.1926 1.95192
rtoes 19.9964
lfemur -186.216 -9.11432 -41.5222
ltibia 131.125
lfoot -0.178683 -14.5055
ltoes 33.6172
3555
root 5.05948 6.20416 17.488 67.8893 -3.33764 1.67588
lowerback 22.8157 -4.15823 5.56034
upperback 8.32405 -4.50707 -6.53379
thorax -4.47744 -2.05081 -9.19225
lowerneck 17.755 -11.5104 -36.767
upperneck -17.4708 -20.5239 47.941
head 3.74351 -13.8971 27.4777
rclavicle -1.66979e-014 -6.97734e-014
rhumerus 52.0754 7.01606 -80.7027
rradius 101.088
rwrist 20.8528
rhand -22.478 -13.777
rfingers 7.12502
rthumb 3.94723 316.28
lclavicle -1.66979e-014 -6.97734e-014
lhumerus 47.2622 -21.1582 78.4229
lradius 90.845
lwrist -46.1312
lhand -35.5743 5.69909
lfingers 7.12502
lthumb -8.69897 35.4998
rfemur 7.63461 5.77281 17.4351
rtibia 1.27222e-014
rfoot 70.0288 1.73269
rtoes 19.854
lfemur -186.249 -8.88758 -41.5295
ltibia 131.236
lfoot -0.305593 -14.4856
ltoes 33.5258
